<?xml version="1.0" encoding="UTF-8" standalone="no"?>
<svg
   xmlns:dc="http://purl.org/dc/elements/1.1/"
   xmlns:cc="http://creativecommons.org/ns#"
   xmlns:rdf="http://www.w3.org/1999/02/22-rdf-syntax-ns#"
   xmlns:svg="http://www.w3.org/2000/svg"
   xmlns="http://www.w3.org/2000/svg"
   xmlns:sodipodi="http://sodipodi.sourceforge.net/DTD/sodipodi-0.dtd"
   xmlns:inkscape="http://www.inkscape.org/namespaces/inkscape"
   version="1.1"
   width="680.31409"
   height="226.76801"
   id="svg9"
   viewBox="0 0 680.31409 226.768"
   sodipodi:docname="logo_uam.svg"
   inkscape:version="0.92.4 (5da689c313, 2019-01-14)">
  <metadata
     id="metadata15">
    <rdf:RDF>
      <cc:Work
         rdf:about="">
        <dc:format>image/svg+xml</dc:format>
        <dc:type
           rdf:resource="http://purl.org/dc/dcmitype/StillImage" />
        <dc:title />
      </cc:Work>
    </rdf:RDF>
  </metadata>
  <defs
     id="defs13" />
  <sodipodi:namedview
     pagecolor="#ffffff"
     bordercolor="#666666"
     borderopacity="1"
     objecttolerance="10"
     gridtolerance="10"
     guidetolerance="10"
     inkscape:pageopacity="0"
     inkscape:pageshadow="2"
     inkscape:window-width="2560"
     inkscape:window-height="1021"
     id="namedview11"
     showgrid="false"
     fit-margin-top="0"
     fit-margin-left="0"
     fit-margin-right="0"
     fit-margin-bottom="0"
     inkscape:zoom="1.0280428"
     inkscape:cx="98.518165"
     inkscape:cy="139.75876"
     inkscape:window-x="1230"
     inkscape:window-y="136"
     inkscape:window-maximized="1"
     inkscape:current-layer="svg9" />
  <path
     inkscape:connector-curvature="0"
     id="path4"
     style="fill:#002e6a;fill-rule:evenodd"
     d="m 88.002604,7.1150013 -1.1622,-0.1474 c -1.2467,-0.169 -3.3939,0.7469 -3.4957,0.7888 l -0.678,0.2999 0.6264,0.417 c 1.2042,0.794 2.3145,1.0488 3.2752,0.7608 1.2189,-0.369 1.7175,-1.5057 1.7413,-1.5567 l 0.2075,-0.4902 z M 170.5441,83.595401 v 0 c -3.4172,0.1905 -12.2239,-1.7499 -20.0529,-23.9451 -0.4141,-1.1546 -1.0321,-1.7462 -1.6874,-1.6311 -0.8408,0.1486 -1.3028,1.3516 -1.3009,3.3917 v 0.0439 c 0.003,6.9367 0.8723,30.2587 11.9152,39.338899 3.7723,3.1102 8.4081,4.1698 13.7293,3.2559 -1.7087,6.0154 -5.0332,9.8184 -8.9442,10.2047 -5.3447,0.5176 -11.169,-5.1295 -16.3774,-15.916799 -1.2603,-2.7031 -2.9633,-7.996 -4.7622,-13.5898 -3.8667,-11.909 -6.5381,-19.7762 -8.5997,-20.5858 -0.8062,-0.3155 -1.3536,-0.0947 -1.6631,0.1542 -0.8927,0.7109 -1.8868,2.9072 -0.3467,13.7268 1.298,7.4197 4.0592,11.7411 6.459,13.5671 -3.2119,0.6662 -8.71,0.5276 -15.6044,-21.4228 -0.7617,-2.3612 -1.6084,-3.5155 -2.5489,-3.4452 -1.1761,0.0986 -1.6855,2.0273 -1.9222,3.6201 -0.4844,3.244 1.1809,9.6494 2.5325,12.8191 -4.6367,-3.9597 -12.8203,-14.659 -9.8113,-23.9051 1.9018,3.3593 3.0515,4.5556 3.094,4.6094 l 0.239,0.2393 0.2854,-0.2013 4.1051,-3.0841 5.8009,3.1057 0.3798,0.2168 0.1766,-0.4102 1.921,-4.4756 5.8145,2.2666 0.3702,0.1562 0.1375,-0.4102 1.2617,-3.8319 5.0411,2.5733 0.4776,0.2393 0.0947,-0.504 1.292,-5.7697 6.1787,2.6751 0.5596,0.2469 -0.002,-0.6171 -0.005,-6.9687 6.1092,-0.002 h 0.3994 v -0.4113 -4.1289 l 4.9649,-0.5468 0.371,-0.0372 -0.0224,-0.3679 -0.2168,-9.9505 c -0.0105,-0.1933 -0.1678,-1.5936 -1.0321,-2.1092 -0.2764,-0.1593 -0.7209,-0.3076 -1.3448,-0.0596 -1.0508,0.4473 -2.2082,1.3301 -2.3164,2.4891 -0.0947,0.8144 0.4121,1.5636 1.3359,2.2697 l 0.003,4.0184 c -0.1267,0.1985 -1.0421,1.2884 -4.828,0.0684 l -0.5275,-0.1747 v 0.5568 c 0.002,4.3407 -0.8153,4.8339 -4.9822,5.3787 l -0.2551,0.0391 -0.0819,0.2393 c -0.6183,1.8856 -1.126,3.2539 -2.13,3.6561 -0.8906,0.3654 -2.291,0.009 -4.3886,-1.1123 l -0.4935,-0.2557 -0.0972,0.5372 c -0.0803,0.4745 -0.1554,0.913 -0.2208,1.3504 -0.2345,1.5967 -0.4284,2.8624 -1.1603,3.2031 -0.6638,0.3399 -1.9159,-0.0371 -3.8239,-1.1199 l -0.4289,-0.2492 -0.1621,0.4785 c -0.1103,0.3554 -0.207,0.7197 -0.3223,1.0732 -0.4777,1.6571 -0.9482,3.2187 -1.7822,3.4356 -0.7081,0.1845 -1.8487,-0.4913 -3.3672,-1.9922 l -0.3447,-0.3339 -0.2812,0.3798 c -1.8063,2.5549 -3.4484,3.797 -4.8575,3.7091 -1.0616,-0.0666 -2.0503,-0.9025 -2.9248,-2.5129 l -0.2528,-0.4773 -0.383,0.3807 c -1.5913,1.5919 -2.6943,2.2413 -3.594,2.1279 -0.8184,-0.1083 -1.6033,-0.8495 -2.52,-2.4072 l -0.0315,-0.043 -0.0269,-0.0372 c -0.4139,-0.3994 -0.9853,-0.7585 -1.5097,-1.0584 -0.1718,-0.0987 -0.3612,-0.2217 -0.5191,-0.3203 0.271,-0.0292 0.7149,-0.0587 1.4474,-0.0604 l 0.1508,-0.002 c 4.6108,-0.003 16.8463,-0.006 25.4596,-5.8056 9.4099,-6.3153 19.086,-13.6435 15.2714,-20.7196 0.0235,-1.0216 0.4561,-1.5057 1.497,-2.5585 0.7617,-0.7657 1.1231,-2.664 1.1231,-4.0794 -0.003,-0.8467 -0.1114,-1.953 -0.6543,-2.493 l -0.2931,-0.2948 -0.2724,0.2948 c -0.5703,0.5626 -0.8563,1.1973 -1.1112,1.8192 -0.4376,0.9981 -0.9053,1.9534 -2.6075,2.761 -0.5253,-1.0596 -0.9258,-1.9494 -1.2255,-2.672 -0.839,-1.8779 -1.2529,-2.8369 -2.5724,-2.8369 l -0.4116,0.002 v 0.413 c 0,0.5996 0.2203,1.3136 0.4439,2.0753 0.3243,1.1454 0.6945,2.4431 0.3047,3.4344 -1.9003,0.7433 -4.0688,3.4591 -4.0688,5.2248 l 0.002,0.5389 0.5127,-0.1446 c 0.6282,-0.1834 1.1648,-0.4118 1.6016,-0.5975 0.3427,-0.1398 0.8019,-0.3495 0.9326,-0.3076 0.0187,0.01 0.1182,0.1338 0.1182,0.8153 0,0.4544 -0.0391,0.8878 -0.0587,1.298 -0.1111,1.4833 -0.1913,2.7606 1.2819,4.2332 l 0.4938,0.4944 0.1698,-0.6758 c 0.9002,-3.3984 2.4443,-5.0998 2.8357,-5.0958 0.0216,0.0235 0.095,0.1318 0.095,0.5927 0.003,2.4738 -0.6582,5.8036 -5.8547,9.6143 -3.5359,2.586 -12.6677,8.7834 -21.2108,10.2265 0.01,0 -1.6838,0.2883 -1.6838,0.2883 -6.1834,1.084 -10.0003,1.6863 -12.662,-2.1787 4.5295,-0.2656 28.7101,-2.0792 35.2734,-11.4347 l 0.1681,-0.2392 -0.1757,-0.2325 c -1.5662,-2.0477 -5.2305,-8.5116 -3.4767,-13.833 1.0185,-3.0578 3.6884,-5.2062 7.9483,-6.4024 4.0675,-0.9501 7.3781,0.798 9.4267,2.4336 3.8125,3.0373 6.4746,8.1533 6.4765,12.4571 0.0831,4.1318 0.7736,17.8478 6.4622,21.0654 1.741,0.9884 3.8378,0.8475 6.1551,-0.3028 -0.4229,2.1144 -1.7929,5.0684 -4.4492,5.8986 -2.7851,0.876 -6.2538,-0.9805 -10.0157,-5.379 -0.4286,-0.4385 -1.0428,-0.9357 -1.6591,-0.6837 -0.6143,0.2492 -0.8906,1.1906 -0.8878,3.0949 0,0.1757 0.3498,17.2304 8.041,22.7412 2.3253,1.6679 5.0735,2.0185 8.1669,1.1551 -0.8356,2.2346 -3.3446,4.4436 -6.6999,4.6378 z m -28.9698,7.7266 v 0 c 0.0108,0.0196 -0.1914,-0.3027 -0.1914,-0.3027 -0.009,-0.0167 -0.4932,-0.7121 -0.4932,-0.7121 0.0218,0.0207 -0.2149,-0.3455 -0.2149,-0.3455 0,-0.0147 -0.3994,-0.6231 -0.3994,-0.6231 l -0.2332,-0.3625 c 0.007,0.01 -0.3257,-0.5281 -0.3257,-0.5281 0,0.0312 -0.1843,-0.3291 -0.1843,-0.3291 -0.01,-0.0275 -0.3308,-0.5352 -0.3308,-0.5352 l -0.1936,-0.3175 c 0.0215,0.007 -0.2716,-0.4776 -0.2716,-0.4776 0.01,0.007 -0.1564,-0.3144 -0.1564,-0.3144 0.0102,0.0168 -0.2234,-0.4354 -0.2234,-0.4354 0.0201,0.0204 -0.1284,-0.3019 -0.1284,-0.3019 -0.0278,-0.0272 -0.2435,-0.4325 -0.2435,-0.4325 0.0195,0.0263 -0.1015,-0.2636 -0.1015,-0.2636 l -0.1896,-0.4082 c 0,0.0204 -0.1097,-0.2481 -0.1097,-0.2481 -0.005,-0.0235 -0.1423,-0.331 -0.1608,-0.367 l -0.0683,-0.2189 v -0.0224 l -0.01,-0.0295 -0.1482,-0.3084 -0.0431,-0.1573 v -0.0371 l -0.01,-0.0304 -0.117,-0.3495 c 0,0 -0.036,-0.1085 -0.0428,-0.1474 l -0.0919,-0.3302 v -0.0232 l -0.005,-0.0159 -0.0703,-0.1542 -0.0516,-0.2716 c 0,0.009 -0.0362,-0.123 -0.0362,-0.1601 l -0.0281,-0.2362 v -0.0354 l -0.01,-0.0349 -0.0289,-0.1357 c 0,0.0184 -0.0584,-0.2141 -0.0584,-0.2424 v -0.1063 c 0,0.0164 -0.019,-0.2256 -0.019,-0.2256 v -0.1035 -0.212 -0.0976 c 0,0.0304 0.019,-0.206 0.019,-0.206 v -0.0216 l 0.0756,-0.1817 c 0,-0.0283 0.01,-0.0759 0.01,-0.0759 0.009,-0.0236 0.0187,-0.095 0.038,-0.1574 v -0.0371 l 0.0654,-0.1709 0.0899,-0.1358 0.0431,-0.0899 c 0.0298,-0.0204 0.0298,-0.0595 0.0609,-0.0799 v -0.0167 l 0.0431,-0.0411 0.0199,-0.036 0.0431,-0.0264 0.0292,-0.0235 0.0969,-0.0712 0.0799,-0.0606 v -0.009 c 0.0238,0 0.0871,-0.0372 0.0871,-0.0372 l 0.0584,-0.0223 c 0.0223,-0.008 0.0459,-0.0148 0.0459,-0.0148 l -0.003,0.005 c 0.6806,0.6526 2.8622,7.0481 4.7685,13.4337 z M 119.6738,104.3455 v 0 l 0.277,0.2733 0.2735,-0.2733 0.2426,-0.2483 c 2.7051,-2.6784 6.0489,-6.008599 8.8906,-5.375899 1.5049,0.3291 2.7848,1.833199 3.7999,4.366199 -2.4415,0.0998 -7.1056,0.7608 -7.1056,3.1592 0,0.5919 0.1669,1.0372 0.4952,1.342 0.6395,0.5711 1.6787,0.4629 2.7748,0.3291 0.4439,-0.0431 0.896,-0.0959 1.313,-0.0959 1.8281,0 7.3653,-0.003 7.3673,4.2033 0,4.1626 -1.9024,5.0592 -3.0943,5.229 0.1204,-1.1579 -0.1089,-2.6504 -1.2144,-3.9078 -1.0908,-1.2705 -3.4189,-2.6943 -8.3271,-2.2822 l -0.5952,0.0428 0.271,0.5304 c 0.1678,0.3418 0.3994,0.7588 0.6621,1.2549 0.1199,0.2276 0.2733,0.502 0.4198,0.7557 l -0.0663,0.0187 0.0859,0.0371 c 1.6158,3.0272 4.1397,8.1462 2.5781,10.5934 -0.6933,1.0508 -2.1563,1.5077 -4.3047,1.4394 1.3213,-4.574 -0.4989,-7.6776 -2.3221,-9.4841 -1.8751,-1.8615 -4.3005,-3.9578 -6.5942,-3.7664 -1.0222,0.0946 -1.8913,0.6454 -2.5997,1.6435 -0.6236,1.029 -0.61,2.0387 0,2.8766 0.7061,0.9805 2.1302,1.5548 3.5966,1.5432 -0.8314,0.9258 -1.8252,1.6092 -2.9667,1.7422 -1.6118,0.1678 -3.2565,-0.5432 -4.7846,-2.0685 -1.0029,-0.9921 -1.3371,-2.6308 -0.902,-4.2752 0.8002,-2.9288 3.7686,-5.2481 8.1652,-6.3573 l 0.2993,-0.083 v -0.3155 c -0.002,-3.6845 -1.4737,-6.7099 -4.9011,-10.096699 l -0.2758,-0.296 -0.2857,0.2883 -0.182,0.1786 c -0.6163,0.6191 -1.2668,1.2608 -2.0172,1.1095 -1.3135,-0.2619 -2.9361,-2.7099 -4.8203,-7.2794 l -0.0184,-0.0791 -0.0544,-0.0343 c -0.5811,-1.0672 2.6379,-12.2918 3.2428,-13.0975 l 0.0797,-0.0762 c -0.009,0.01 0.0139,-0.0947 0.0139,-0.0947 0.1686,-0.6279 0.6284,-1.5724 1.0649,-1.6115 0.1404,-0.009 0.652,0.0675 1.4386,1.6787 0.3331,0.6749 0.692,1.3654 1.0678,2.0988 1.9812,3.7811 4.2183,8.075 3.5499,12.3193 -0.8839,4.3974 4.896,11.605399 5.4623,12.145599 z m 9.6769,10.1169 v 0 c 0.557,0.1454 1.0225,0.3954 1.3955,0.7704 0.5908,0.5743 0.8603,1.342 1.0089,2.0254 -0.5627,-1.1095 -1.3519,-2.0509 -2.4044,-2.7958 z M 102.4763,69.415601 v 0 l -0.4938,-0.3123 -0.1188,0.5692 c -0.3962,1.792 -1.6132,6.3938 -2.801196,8.1328 -0.5385,-0.9034 -1.0953,-1.953 -1.6341,-2.999 -1.0318,-2.0214 -2.0146,-3.9277 -2.9923,-4.8827 l -0.4918,-0.4825 -0.1738,0.6543 c -0.5833,2.0684 -0.9238,3.6496 -1.1834,4.9238 -0.358,1.6514 -0.5857,2.6563 -1.0514,3.3349 -2.5293,-2.7207 -4.4317,-7.5379 -4.4589,-7.581 l -0.4303,-1.1259 -0.3237,1.1622 -1.9157,6.8173 c -0.8475,-0.6718 -2.7459,-2.5381 -2.8578,-5.8115 l -0.0437,-1.5157 -0.714,1.3476 -2.5104,4.795 c -1.0111,-1.2452 -3.8426,-5.7753 -2.2626,-14.9765 1.963,3.4208 4.5485,6.0829 4.6669,6.2011 l 0.5298,0.5235 0.1531,-0.7313 1.1336,-5.4661 c 1.3864,2.0441 3.1147,4.8742 3.1147,5.6886 v 0.9706 l 0.7013,-0.6874 c 1.8408,-1.8536 3.5674,-4.5723 4.0629,-6.2051 1.296,1.3692 3.0138,3.7959 3.3678,6.2031 l 0.8062,-0.0723 -0.0451,0.1661 c 0.038,-0.0606 0.2387,-0.3965 0.4507,-0.756 1.5659,-2.5506 3.0425,-5.036 3.6683,-6.5713 1.390696,3.3194 2.536196,7.4464 2.549496,7.4982 l 0.1327,0.5049 0.4532,-0.2696 c 0.1514,-0.1015 3.2837,-2.0205 5.192,-5.4278 -0.0992,6.1867 -0.8311,8.1309 -2.9767,10.4142 -0.2324,-3.0293 -1.451,-3.9999 -1.5032,-4.0334 z m -2.1832,15.8585 v 0 l -1.166196,-1.1073 -0.2812,-0.2744 -0.286,0.2793 c -0.0612,0.0663 -1.3609,1.5057 -2.8483,6.8692 -1.5488,-1.9466 -3.8352,-6.844 -3.8633,-6.8948 l -0.2205,-0.4753 c 0.0972,-0.1661 0.2006,-0.3694 0.2006,-0.3694 l 3.1255,-5.6299 c 1.0035,2.34 2.0376,5.1047 2.0475,5.1426 l 0.2577,0.6602 0.4373,-0.5587 c 1.2935,-1.6288 3.272596,-3.7499 4.347796,-4.2947 -0.1236,3.5974 -1.2665,5.8807 -1.7509,6.6532 z m -3.860796,10.7764 v 0 c -0.6667,0.6347 -1.6206,0.2257 -1.6725,0.2089 l -0.5521,-0.25 c -0.005,0 -0.005,0.6231 -0.005,0.6231 0,0.0156 -0.0524,2.0245 -1.3844,4.460899 -1.2608,-0.493 -1.7946,-1.553699 -2.5291,-3.138599 -0.1848,-0.4033 -0.3713,-0.8135 -0.6001,-1.2597 l -0.4705,-0.9326 -0.271,0.9978 c -0.813,2.8967 0.8974,6.108699 4.0864,7.634799 0.4913,0.2404 0.7251,0.5528 0.7056,0.9678 -0.038,1.0499 -1.5752,2.5186 -2.8131,3.0302 -0.4629,0.1868 -0.7552,0.1868 -0.8672,0.1106 -9.1658,-21.697199 -8.939,-26.261899 -8.3057,-28.922999 2.1013,1.0927 3.7734,3.6955 3.7981,3.7275 l 0.4955,0.8215 0.2319,-0.9298 c 0.007,-0.0343 0.6088,-2.4111 1.5035,-4.6318 1.195,1.4023 3.3329,4.707 3.3687,4.7469 l 0.2029,0.3067 -0.2358,0.5208 -2.4883,5.6063 c -0.6766,-0.6454 -2.1033,-2.1192 -3.5297,-4.2352 l -0.7276,0.3132 c 1.1636,5.417 2.7022,7.2031 4.445,8.833 l 0.6797,0.6378 v -0.9209 c 0.019,-0.4337 1.3411,-3.3838 2.3689,-4.8283 0.5338,2.0293 2.5917,4.2199 2.8718,4.4844 0.3098,0.3254 0.6576,0.6015 0.9573,0.8459 0.4082,0.3399 0.8674,0.7245 0.8858,0.9365 -0.003,0.0859 -0.0921,0.1874 -0.1488,0.2353 z m -0.669,19.314999 v 0 c 0.286,0.8223 0.2435,1.5296 -0.1811,2.1368 -1.1461,1.6602 -4.5771,2.215 -5.4088,2.215 -0.8487,0 -6.751,-0.7345 -6.7533,-3.7268 0,-2.4791 4.8921,-3.2388 6.772,-3.3103 2.9475,-0.007 5.3612,2.4744 5.5712,2.6853 z m 3.2545,21.3225 v 0 c 2.419296,2.1073 5.493496,3.0058 9.119596,2.7558 -0.9474,1.7754 -2.7496,2.914 -4.9244,2.992 -3.576196,0.1018 -6.884796,-2.412 -8.847196,-6.7439 l -0.5723,-1.2441 -0.1939,1.3416 c -0.5165,3.4807 4.3535,11.4299 12.137696,15.6487 -0.7597,0.7713 -1.8706,1.3064 -3.2542,1.3416 -2.760896,0.0975 -5.760596,-1.3946 -8.020596,-4.0039 l -0.3971,-0.4629 -0.2625,0.5547 c -0.4507,0.9434 0.1397,2.0273 0.7772,3.1856 0.4933,0.8943 0.9941,1.8261 0.9941,2.6719 0,0.5936 -0.1292,5.7597 -4.6117,8.5955 -4.4912,-2.8338 -4.6445,-8.0019 -4.6445,-8.5938 -0.003,-0.8495 0.4935,-1.7753 0.9873,-2.6736 0.6284,-1.1563 1.2075,-2.2402 0.7656,-3.1836 l -0.2574,-0.5548 -0.3985,0.4669 c -2.2465,2.5917 -5.2197,4.0879 -7.9758,4.0215 -1.3919,-0.047 -2.5084,-0.5627 -3.2809,-1.3515 7.7369,-4.2169 12.6278,-12.1564 12.1471,-15.6291 l -0.1939,-1.3788 -0.5817,1.2521 c -1.9647,4.3338 -5.2852,6.8592 -8.8495,6.7518 -2.173,-0.0842 -3.9464,-1.211 -4.8815,-2.9611 3.5232,0.4082 6.5446,-0.3611 8.9249,-2.3632 5.1964,-4.3435 5.8543,-12.7579 5.928,-14.5429 l 4.5871,-0.008 c 0.0856,1.7501 0.7554,9.7033 5.779,14.1154 z m -20.3137,-45.704999 v 0 l -0.0425,0.0391 -0.0354,0.0743 c -1.8771,4.5714 -3.4866,7.0206 -4.8042,7.2814 -0.7716,0.1493 -1.4048,-0.4924 -2.0285,-1.1075 l -0.1675,-0.171 -0.288,-0.2931 -0.2863,0.2931 c -3.4271,3.396499 -4.8861,6.418799 -4.8835,10.102399 v 0.3175 l 0.3132,0.0811 c 4.3699,1.0995 7.3406,3.4248 8.1372,6.3399 0.449,1.6597 0.1111,3.2945 -0.8833,4.2849 -1.5234,1.5333 -3.1748,2.2382 -4.7903,2.0625 -1.1333,-0.1174 -2.1231,-0.7968 -2.9571,-1.7266 1.4604,0.008 2.88,-0.5644 3.5972,-1.5469 0.6097,-0.8359 0.6123,-1.8555 0.0215,-2.8562 -0.7271,-1.0264 -1.5948,-1.5723 -2.622,-1.667 -2.3239,-0.1962 -4.8838,2.0633 -6.6056,3.7732 -1.8207,1.8065 -3.6329,4.9158 -2.3193,9.4844 -2.1563,0.074 -3.6108,-0.3866 -4.2979,-1.4454 -1.7266,-2.6719 1.4879,-8.621 3.0229,-11.4519 0.2636,-0.4677 0.4728,-0.872 0.6398,-1.1971 l 0.2641,-0.5275 -0.5952,-0.0459 c -4.8838,-0.4071 -7.2145,1.0224 -8.3033,2.2861 -1.0967,1.2645 -1.3467,2.7547 -1.2163,3.9169 -1.1903,-0.1661 -3.1034,-1.0664 -3.1054,-5.2313 -0.002,-4.2013 5.542,-4.2041 7.3514,-4.2061 0.4209,0 0.8901,0.0508 1.334,0.0947 1.0947,0.127 2.1291,0.2336 2.7541,-0.3319 0.3334,-0.3028 0.5111,-0.7481 0.5111,-1.3417 -0.002,-2.3995 -4.6766,-3.0617 -7.1005,-3.1524 1.0162,-2.5381 2.2694,-4.029399 3.7607,-4.372999 2.8219,-0.6349 6.1821,2.681599 8.873,5.338799 l 0.2858,0.2803 0.271,0.2744 0.2905,-0.2744 c 0.6375,-0.6366 6.3091,-7.823299 5.4516,-12.158299 -0.6681,-4.2296 1.561,-8.5224 3.5308,-12.3126 0.3969,-0.7333 0.7461,-1.4207 1.082,-2.0897 0.7835,-1.6203 1.296,-1.6923 1.44,-1.6826 0.43,0.0391 0.8765,0.9825 1.0585,1.5996 l 0.0235,0.1102 0.0847,0.0814 c 0.5953,0.7821 3.8138,11.9764 3.2335,13.0739 z m -28.4456,26.523199 v 0 c 0.1321,-0.7421 0.4226,-1.6052 1.0474,-2.2422 0.3852,-0.3946 0.9037,-0.6327 1.4734,-0.7832 -1.1219,0.7968 -1.9539,1.8145 -2.5208,3.0254 z m -10.6467,-25.165699 v 0 c 1.897,-6.3927 4.0694,-12.7919 4.7778,-13.4776 0.1687,0.0352 0.4371,0.1506 0.6404,0.5528 0.4793,0.9161 0.89,4.0331 -5.4182,12.9248 z m 20.9968,-9.127 v 0 c 1.3479,-3.1648 3.0175,-9.5771 2.5404,-12.8193 -0.233,-1.5996 -0.7602,-3.5164 -1.9366,-3.6202 -0.9374,-0.0759 -1.7895,1.0792 -2.5645,3.4475 -6.8559,21.9413 -12.3656,22.1003 -15.5659,21.4316 2.4089,-1.8116 5.1574,-6.1367 6.4253,-13.5558 1.5503,-10.8524 0.5437,-13.0391 -0.3422,-13.7361 -0.3163,-0.2551 -0.852,-0.4757 -1.6571,-0.1573 -2.0548,0.8087 -4.7477,8.7128 -8.6017,20.662 -1.789,5.5703 -3.4838,10.8204 -4.7367,13.5343 -5.2016,10.773299 -11.0118,16.434099 -16.3565,15.911699 -3.9282,-0.3872 -7.2456,-4.1891 -8.9676997,-10.1948 5.3322997,0.9079 9.9592997,-0.1574 13.7361997,-3.2658 11.0245,-9.083899 11.8788,-32.410199 11.8746,-39.338899 v -0.0576 c 0,-2.0401 -0.4581,-3.2411 -1.2847,-3.3868 -0.6661,-0.1179 -1.2804,0.4768 -1.7002,1.6279 -7.7828,22.1856 -16.5946,24.1427 -20.0211,23.9621 -3.3527997,-0.1876 -5.8744997,-2.4015 -6.7597997,-4.6329 3.1091,0.8603 5.8739997,0.5048 8.2008997,-1.1602 7.6709,-5.5157 8.0272,-22.5732 8.0272,-22.7481 -0.002,-1.9071 -0.2758,-2.8425 -0.9063,-3.0945 -0.6001,-0.256 -1.2149,0.2488 -1.6205,0.655 -3.7812,4.4317 -7.2462,6.2853 -10.0306997,5.4162 -2.6592,-0.8399 -4.0246,-3.7911 -4.4382,-5.8946 2.3088,1.1466 4.377,1.2891 6.1310997,0.2979 5.6763,-3.1964 6.3768,-16.9328 6.4556,-21.0694 0,-4.3027 2.6572,-9.4238 6.4593,-12.458 2.0639,-1.6395 5.3682,-3.3916 9.4541,-2.4326 4.2389,1.1837 6.9052,3.336 7.9376,6.3955 1.7617,5.3339 -1.8842,11.7805 -3.4575,13.8262 l -0.1822,0.2305 0.1635,0.2441 c 6.5631,9.3526 30.7378,11.1435 35.2778,11.4043 -2.6453,3.8662 -6.471,3.2627 -12.6352,2.1903 l -1.7056,-0.288 c -8.5501,-1.4434 -17.6845,-7.6181 -21.2227,-10.2118 -5.1846,-3.8046 -5.8524,-7.1348 -5.8524,-9.6086 0,-0.449 0.0904,-0.5692 0.0941,-0.5879 0.3971,0.007 1.9182,1.7062 2.8154,5.0891 l 0.1868,0.6726 0.4892,-0.4909 c 1.4896,-1.4658 1.3907,-2.7414 1.2847,-4.214 -0.0363,-0.4278 -0.0615,-0.8504 -0.0641,-1.3173 0,-0.6845 0.0822,-0.8067 0.1015,-0.8215 0.1276,-0.0391 0.6046,0.1662 0.9561,0.3136 0.4394,0.1856 0.9732,0.4113 1.6206,0.5958 l 0.5026,0.1406 v -0.5352 c 0,-1.7685 -2.1745,-4.4776 -4.104,-5.2197 -0.3691,-0.9913 -0.009,-2.2901 0.3274,-3.4376 0.2202,-0.7597 0.4187,-1.4814 0.4187,-2.0761 v -0.4101 l -0.3972,-0.007 c -1.3133,0 -1.7328,0.9405 -2.5551,2.8221 -0.3045,0.7189 -0.7061,1.6183 -1.2422,2.6808 -1.6812,-0.8057 -2.1449,-1.7538 -2.5863,-2.7482 -0.2662,-0.6268 -0.5459,-1.2606 -1.1137,-1.8389 l -0.2869,-0.2752 -0.286,0.2832 c -0.5763,0.5743 -0.6466,1.8309 -0.6466,2.5234 0,1.417 0.3566,3.295 1.1339,4.0538 0.9867,0.9881 1.476,1.5009 1.4967,2.5614 -4.0947,7.664 7.9974,15.8173 15.2787,20.7003 8.5961,5.7948 20.8519,5.79 25.4755,5.788 l 0.1423,-0.002 c 0.7226,0 1.1758,0.0272 1.4457,0.0567 -0.1704,0.1015 -0.3668,0.2285 -0.5219,0.3232 -0.5147,0.3019 -1.1055,0.659 -1.5148,1.0576 l -0.0323,0.0382 -0.0238,0.046 c -0.9287,1.5536 -1.6841,2.2926 -2.5064,2.4071 -0.8946,0.1103 -2.0098,-0.5323 -3.6102,-2.1259 l -0.3716,-0.379 -0.2617,0.4773 c -0.8784,1.6087 -1.8635,2.4514 -2.9313,2.5226 -1.4071,0.0842 -3.0566,-1.1583 -4.8705,-3.7128 l -0.2798,-0.3799 -0.331,0.3331 c -1.5234,1.5018 -2.6456,2.1807 -3.358,2.0058 -0.8433,-0.2129 -1.307,-1.7649 -1.7934,-3.4044 -0.1086,-0.3643 -0.2285,-0.7345 -0.3515,-1.1084 l -0.1423,-0.4773 -0.4369,0.2517 c -1.9003,1.0859 -3.1484,1.4542 -3.8111,1.1151 -0.7212,-0.3387 -0.9213,-1.6092 -1.1651,-3.2096 -0.0564,-0.4289 -0.127,-0.8734 -0.2191,-1.342 l -0.0967,-0.5343 -0.4943,0.2532 c -2.1013,1.1259 -3.488,1.4842 -4.3733,1.1191 -1.0035,-0.4094 -1.5188,-1.7686 -2.1348,-3.6545 l -0.081,-0.242 -0.2501,-0.038 c -4.1615,-0.544 -4.9855,-1.0352 -4.9855,-5.3762 v -0.5584 l -0.5293,0.1766 c -3.7406,1.214 -4.6712,0.1641 -4.822,-0.0615 v -4.0216 c 0.9199,-0.7069 1.4168,-1.4657 1.334,-2.2685 -0.1233,-1.1619 -1.2898,-2.0429 -2.3306,-2.4843 -0.6197,-0.25 -1.0698,-0.1006 -1.3278,0.0635 -0.8671,0.5116 -1.0179,1.9131 -1.04,2.0752 0,0.0324 -0.2237,9.9746 -0.2237,9.9746 v 0.3691 l 0.3677,0.0391 4.9796,0.542 0.002,4.1298 v 0.4101 l 0.4062,0.007 6.0984,-0.005 0.002,6.9815 v 0.6182 l 0.5562,-0.2492 6.167,-2.6796 1.2923,5.7578 0.1018,0.5167 0.4759,-0.2421 5.0499,-2.5744 1.2374,3.8302 0.1488,0.409 0.3852,-0.157 5.7779,-2.2706 1.9522,4.4757 0.1732,0.4082 0.3892,-0.2149 5.8056,-3.1105 4.0947,3.0773 0.2644,0.2061 0.243,-0.2412 c 0.0473,-0.0508 1.1905,-1.2549 3.0968,-4.6134 3.0062,9.2452 -5.1812,19.9511 -9.8056,23.913 z m 20.037,-33.9159 v 0 c 1.063,2.5585 2.0375,5.7149 2.0571,5.7569 l 0.453,1.4454 0.3336,-1.4777 c 0.007,-0.0627 1.2773,-5.5616 2.8482,-7.5694 1.7714,2.0469 4.6996,7.6037 4.724,7.6612 l 0.7526,-0.2049 c 0,-0.0392 -0.0919,-4.0539 2.1776,-6.634 0.5434,0.5888 1.0703,1.2841 1.6134,2.007 1.3539,1.8161 2.7539,3.698 4.3246,3.6961 l 0.403896,0.002 v -0.4081 c -0.003,-3.3877 0.6494,-4.997 0.9984,-5.6291 l 4.0918,4.0402 c 0.5454,0.8096 -0.7348,8.621 -2.7309,11.3185 -2.2198,-4.4892 -4.208096,-7.3457 -5.032696,-8.1553 l -0.288,-0.2783 -0.2794,0.2811 c -0.3813,0.3867 -0.5953,1.2334 -0.857,2.414 -0.3801,1.6787 -0.9399,3.8937 -2.2053,5.0568 -1.2047,-1.3332 -1.9117,-2.7307 -2.4922,-3.9836 -0.529,-1.1171 -0.9879,-2.0809 -1.7054,-2.8026 l -0.3806,-0.371 -0.2569,0.4765 c -0.7614,1.3986 -1.1225,2.753 -1.4439,3.9619 -0.2733,1.0381 -0.559,1.882 -0.9848,2.4991 l -4.4161,-4.381 -1.0366,-1.0077 -0.692,-0.6817 v 0.9689 c 0.003,3.2575 -0.2786,4.7001 -0.4682,5.3212 -0.9375,-0.9414 -3.3622,-3.6993 -4.5791,-8.0244 0.8674,-0.625 3.7479,-2.8544 5.0709,-5.2979 z m -2.1864,-5.1259 v 0 0.1035 c 0.005,1.4011 0.0136,2.495 -0.4912,3.0019 -0.1619,0.1573 -0.4918,0.1856 -0.773,0.2332 0.0751,-1.8728 0.5315,-2.7595 0.9136,-3.1405 0.144,-0.1133 0.2429,-0.1425 0.3481,-0.1981 z m 4.3875,-8.9728 v 0 c 2.6974,-4.0107 6.247,-12.0929 -0.2364,-21.1504 l -0.0238,-0.0303 -0.019,-0.0224 c -1.3502,-1.3417 -2.2714,-1.7283 -2.7227,-1.8516 l -0.4278,-1.7782 -0.0779,-0.3058 h -0.3141 c -0.6803,0 -3.4594,0.7492 -4.9379,1.4493 -0.1163,-0.5783 -0.2248,-1.6482997 0.4266,-2.4295997 0.8271,-0.9932 2.6787,-1.2892 5.3589,-0.8458 h 0.038 l 0.024,-0.003 c 0.9355,0 1.164,-0.8319 1.3984,-1.6435 0.1749,-0.6114 0.394,-1.3887 0.9278,-2.1084 1.6656,-2.2433 3.8471,-2.2521 6.6325,-1.586 2.4114,0.6064 6.8045,2.3584 9.0759,4.3654 3.337496,2.9422997 3.903896,6.6843997 3.959196,9.7644997 -1.3048,-0.5675 -2.343396,-0.7589 -3.066496,-0.415 -0.6327,0.2999 -1.0367,0.9266 -1.2515,1.9159 -1.2442,6.0109 -0.2523,12.3146 2.815596,17.7384 2.9514,5.0244 3.7928,8.6765 4.015,10.7334 -0.61,-0.796 -1.1435,-1.6631 -1.6084,-2.4787 -0.8628,-1.487 -1.4669,-2.5594 -2.3009,-2.5577 h -0.2596 l -0.1038,0.22 c -1.009096,1.8808 -2.076096,4.0096 -1.834796,6.162 -2.1665,-0.8731 -4.1528,-2.2774 -4.263,-6.6816 l -0.7824,-0.1221 -0.6165,1.701 c -0.8904,2.4514 -1.7663,4.8586 -2.3219,5.9241 -2.234,-4.5331 -3.5138,-5.8379 -4.2772,-6.6143 l -0.3838,-0.3691 c -0.0105,-0.0187 -0.2727,0.4609 -0.2727,0.4609 -0.6089,1.1316 -1.1645,2.0126 -1.6489,2.8007 -0.6426,1.0148 -1.0307,1.7861 -1.2699,2.5273 -1.334,-2.1376 -1.7759,-2.7646 -1.8752,-2.8701 -0.0575,-0.1298 -1.9179,-3.8741 2.2247,-9.8994 z m 89.365296,40.0742 v 0 c -3.2071,-1.9298 -5.1993,-7.1543 -5.2881,-13.6865 5.8808,0.4813 10.0517,-0.532 12.3574,-3.0946 2.9435,-3.2969 2.3326,-8.4112 1.5752,-11.969 l -0.1346,-0.7293 -0.5228,0.5284 c -2.4511,2.4375 -4.5751,3.291 -6.3357,2.5625 -4.2658,-1.7892 -5.669,-12.6017 -5.671,-16.1359 -0.4521,-9.0253 -3.7267,-15.7391 -9.2109,-18.9003 -4.4688,-2.5937 -9.9796,-2.5733 -15.1089,0.0555 -3.1598,1.6348 -5.2305,4.0371 -6.1481,7.1632 -1.4822,5.0508 0.4289,11.169 2.5969,15.0412 -11.0362,8.8906 -29.7638,6.7323 -32.544,6.3524 -3.4662,-6.2013 -5.2359,-12.8761 -5.2401,-19.8164 v -0.1406 c 0,-0.8144 0.225,-1.33 0.6652,-1.5636 1.2711,-0.6914 4.2322,0.9445 5.2702,1.6378 l 0.5009,-0.6366 c -0.0386,-0.0303 -2.5818,-2.4973 -6.4026,-12.9491997 -2.3341,-5.1993 -9.216296,-7.4679 -12.050396,-8.20629997 -5.4655,-1.86520003 -8.9257,-0.4422 -11.2232,4.61449997 -0.1752,0.407 -1.5117,0.4929 -2.5937,0.5644 -1.5845,0.0975 -3.3939,0.2148 -4.2885,1.165 -2.3366,2.5058 -0.36,8.3114997 -0.2702,8.5585997 l 0.1687,0.4842 0.4198,-0.2772 c 0.0516,-0.0187 4.2968,-2.6632 7.4347,-1.0001 2.1654,1.1418 3.3568,4.0519 3.5263,8.6533 0,3.7032 -3.1666,9.9054 -9.6905,18.9414 -2.7652,0.381 -21.414,2.5821 -32.4649,-6.3388 2.1308,-3.877 4.0269,-10.0058 2.5464,-15.0585 -0.917,-3.1124 -2.9878,-5.5148 -6.1572,-7.1456 -4.8228,-2.4766 -10.4819,-2.2481 -15.1554,0.6231 -6.2334,3.8222 -9.7991,11.7343 -9.7968,21.7179 0.002,3.0662 -1.6963,11.7791 -5.5252997,13.1893 -1.817,0.6747 -3.9574,-0.4161 -6.3403,-3.2451 l -0.54649996,-0.6338 -0.1624,0.8135 c -0.8362,4.1114 -0.0918,9.7676 3.46079996,13.1239 1.8729,1.7892 5.3277,3.5637 11.0723997,2.1982 -0.1026,6.4933 -2.086,11.6995 -5.2729997,13.6086 -2.1226,1.2841 -4.697,1.1191 -7.6875,-0.4728 l -0.7149,-0.377 0.1244,0.799 c 0.9306,5.952 3.2267,9.7441 6.6529,10.952 4.6513997,1.6378 11.3130997,-1.4207 19.7846997,-8.9805 -2.1725,9.6662 -4.7177,20.376 -11.0616,23.654299 -2.9268,1.5061 -6.4029,1.3731 -10.6381997,-0.4034 l -0.6494,-0.2812 0.1015,0.7042 c 1.167,8.2108 4.0881,13.8931 8.2456997,15.9987 2.8998,1.4746 6.2651,1.1954 10.006,-0.8164 9.8889,-5.3356 15.16,-21.712499 15.3896,-22.413799 0.0762,-0.2988 0.1757,-0.6015 0.2647,-0.9011 l 0.1347,0.1374 c 1.5888,1.586 3.8755,2.3038 6.2872,1.9786 3.1794,-0.4413 6.0554,-2.5665 7.905,-5.8291 1.0735,-2.2539 1.8726,-4.1681 2.5719,-5.8592 0.5952,-1.4015 1.1069,-2.5821 1.6455,-3.6633 -0.3379,2.7511 -1.3119,5.4805 -2.8556,7.7148 l 0.0382,-0.0663 c -0.5142,0.5068 -0.6114,0.9249 -0.3282,1.2254 0.8903,0.9113 6.9723,-1.87 8.1618,-3.0144 0.2486,-0.2588 0.6576,-0.2814 1.0185,-0.0782 0.89,0.4921 1.542,2.2235 0.7418,5.584 -1.2989,5.3351 -2.7876,7.0322 -4.3742,8.6689 -1.233,-1.1563 -6.351,-5.5956 -10.5448,-4.0439 -2.6411,0.9649 -4.212,4.1386 -4.6939,9.393399 -2.9911,3.0393 -5.1276,8.0841 -3.5629,11.4092 0.7861,1.658 2.8168,3.5195 8.0291,3.0407 -0.0941,0.506 -0.2075,0.9964 -0.2259,1.5548 v 0.0196 l 0.005,0.0292 c 0.3048,3.7598 1.5152,6.3243 3.5723,7.6016 2.1948,1.3612 5.3007,1.2501 9.2143,-0.3262 l 0.4337,-0.1738 -0.2353,-0.4122 c -1.0471,-1.7949 -3.2471,-5.5332 -2.2961,-7.5917 0.3232,-0.6973 1.023,-1.1191 2.0551,-1.3416 0.2007,0.2089 0.3972,0.4257 0.6251,0.703 1.3515,1.5879 3.3687,3.9823 6.4454,3.291 4.9844,-1.1875 7.5175,-3.3438 7.5175,-6.4335 -0.002,-3.4325 -0.874,-7.03 -6.939,-10.1316 0.1015,-2.499 1.6047,-3.3701 3.8829,-4.6222 2.2377,-1.2274 4.9955,-2.739099 7.2411,-6.435499 -0.004,0.0167 0.2226,-0.3299 0.2226,-0.3299 0.1017,-0.1378 0.3024,-0.3898 0.528,-0.3994 0.2022,0 0.4502,0.1989 0.707,0.5468 -0.009,-0.0119 0.309,0.5096 0.309,0.5096 3.4211,5.014799 4.3452,13.559599 3.3874,14.369099 -0.1777,0.1406 -0.5769,0.3994 -1.0417,0.6877 -1.9605,1.1914 -5.5732,3.3894 -5.3589,6.0143 0.1442,1.7246 1.8351,3.2187 5.1953,4.5703 l 0.074,0.0331 c 0.4036,0.3946 0.5692,3.4804 -0.9944,7.3341 -1.5259,3.7695 -4.8628,8.5252 -14.0414,7.6229 l -0.5902,-0.0663 0.1636,0.5644 c 1.7288,6.1075 3.8446,9.1366 10.4598,9.4396 -3.3673,2.6581 -7.1178,4.6463 -7.16,4.6639 l -0.2532,0.1309 0.0417,0.2852 c 0.003,0.0607 0.9998,5.8768 10.1273,6.0313 0.2793,4.2225 4.8541,8.0974 7.941,10.6874 l 0.2665,0.2345 0.2622,-0.2345 c 3.0852,-2.582 7.6623,-6.451 7.9166,-10.6914 9.162696,-0.1621 10.141496,-5.9862 10.152196,-6.0392 l 0.0471,-0.2908 -0.2633,-0.1231 c -0.0366,-0.0215 -3.7812,-2.0097 -7.1465,-4.6621 6.628,-0.3047 8.7393,-3.3341 10.4321,-9.4473 l 0.1466,-0.5624 -0.5834,0.0663 c -9.2013,0.9063 -13.364496,-3.8749 -14.890396,-7.664 -1.5335,-3.8514 -0.5267,-6.9315 -0.1233,-7.2794 l 0.0609,-0.0292 c 3.351696,-1.3595 5.050196,-2.8496 5.191996,-4.5762 0.2049,-2.6354 -3.443596,-4.8336 -5.385296,-6.0202 -0.4785,-0.2832 -0.8756,-0.5304 -1.0366,-0.675 -0.9737,-0.8092 -0.0278,-9.3798 3.3613,-14.357099 0.007,-0.0148 0.2999,-0.4757 0.474,-0.7501 l 1.205196,0.1191 0.1222,0.1729 c 2.2014,3.7128 4.9862,5.164999 7.2108,6.316399 2.3448,1.2305 3.9039,2.0937 3.9869,4.8447 -6.0576,3.0986 -6.9347,6.7031 -6.9321,10.1344 0.002,3.0901 2.5336,5.2461 7.5478,6.4299 3.073,0.6893 5.0902,-1.7054 6.4273,-3.2894 0.2333,-0.2868 0.4297,-0.4997 0.6259,-0.7129 1.036,0.2248 1.7214,0.6466 2.0488,1.3419 0.955,2.0665 -1.3101,5.9375 -2.2765,7.5958 l -0.2333,0.4062 0.4366,0.1777 c 3.9744,1.6211 7.1186,1.6974 9.3319,0.246 2.2085,-1.4451 3.3886,-4.4002 3.5223,-8.7692 v -0.0471 l -0.013,-0.0312 c -0.019,-0.1014 -0.0621,-0.1717 -0.0898,-0.2755 5.0728,0.4062 7.0738,-1.4179 7.8411,-3.0642 1.5378,-3.3211 -0.6122,-8.3631 -3.5917,-11.3905 -0.4941,-5.261699 -2.0642,-8.436499 -4.707,-9.391399 -3.6328,-1.3284 -8.3094,1.9255 -10.5267,4.0515 -1.654,-1.6815 -3.0971,-3.3318 -4.3835,-8.6678 -0.8116,-3.3604 -0.1582,-5.0791 0.7228,-5.5811 0.37,-0.2061 0.7782,-0.1826 1.0321,0.0711 1.1948,1.181 7.3565,4.053 8.2395,3.1465 0.447,-0.4629 -0.1389,-1.076 -0.3762,-1.3141 -1.548,-2.213 -2.5146,-4.9318 -2.8442,-7.6867 0.5,1.0664 1.0162,2.2042 1.5865,3.5662 0.7129,1.7042 1.5191,3.6488 2.6189,5.931 1.8496,3.2791 4.724,5.3974 7.9036,5.8376 2.4267,0.3235 4.7253,-0.3934 6.3241,-1.9794 l 0.1114,-0.1162 c 0.0845,0.2882 0.1743,0.5782 0.2715,0.8674 0.2112,0.7098 5.5029,17.079799 15.414,22.409499 3.7304,2.0121 7.0702,2.2814 9.9726,0.8187 4.1709,-2.1172 7.0937,-7.8055 8.257,-16.0135 l 0.0967,-0.7013 -0.6514,0.2792 c -4.2412,1.7776 -7.7267,1.9103 -10.6436,0.4054 -6.3456,-3.278299 -8.8869,-13.987299 -11.0763,-23.650299 8.4931,7.5606 15.1554,10.6112 19.7988,8.9668 3.4316,-1.2081 5.7206,-5.0028 6.6515,-10.957 l 0.1015,-0.792 -0.6922,0.381 c -2.9943,1.5709 -5.5999,1.737 -7.7091,0.4597 z M 92.591904,203.3265 v 0 h -0.2157 l -13.9771,0.2285 8.1414,-18.5 c 0,0 0.4397,-1.5821 1.4879,0 l 4.5635,18.2403 -0.009,0.002 z m 82.687396,17.8418 v 0 c -1.4042,-5.3671 -6.1183,-79.2909 -6.0312,-81.3554 -0.3311,-1.5157 3.3242,-3.7735 3.5498,-3.7735 -7.2675,1.3536 -13.7928,0.6857 -17.0235,0.0703 -1.8799,-0.4317 1.9219,1.5392 1.5792,3.0079 -0.8546,8.6249 -15.5234,53.041 -15.4054,52.8885 -3.2616,-3.0663 -10.1259,-50.6775 -10.1483,-51.3377 -0.252,-2.1251 3.4324,-3.7794 2.8173,-4.627 -7.7607,3.4999 -18.809,0.006 -18.809,0.006 -1.235,0.5623 2.4662,2.0174 2.3573,5.2166 -0.0989,3.2402 -5.9145,69.0176 -6.9389,74.8028 -0.3237,1.8828 -0.6307,3.9062 -1.3133,5.711 l -0.6404,-0.9553 c -6.7334,-12.7264 -10.524396,-42.8865 -10.273896,-44.1034 0.2053,-1.2206 2.704596,-1.9434 2.704596,-1.9434 l -15.295796,-0.1211 c -0.2256,3.7891 -19.0947,43.793 -23.4708,47.6329 l -0.0165,-0.0137 c 0,0 0.4984,-76.8358 0.4845,-80.8358 -0.0525,-3.162 3.9866,-5.3966 3.9866,-5.3966 l -0.5839,0.0879 c -2.2672,0.6678 -5.1012,1.002 -8.2052,1.002 -3.0673,0.002 -5.8685,-0.3965 -8.1215,-1.0879 -0.9564,-0.1933 -1.1429,0.0955 -1.1429,0.1678 l 1.0814,1.4063 c 5.3189,4.871 -0.5151,35.1875 -0.8833,35.8497 -24.8292,73.0312 -34.7187,30.0626 -34.7187,30.0626 -2.6754,-11.8948 3.5472,-60.3244 3.7275,-60.4298 1.6631,-3.3007 6.8233,-6.4004 6.7051,-6.791 l -0.142,-0.1562 c -9.6662,4.4705 -24.91169966,-0.1837 -25.02509966,-0.0998 l -0.038,0.01 v 0.0939 c -0.6304,0.3435 5.56699996,3.1325 5.76959996,5.6678 -0.0323,1.2518 -3.484,56.2286 -3.4854,56.0194 -0.8241,28.5724 16.0037997,28.9239 16.0037997,28.9239 22.2882,-0.3651 32.2067,-42.4375 32.4048,-43.5118 0.2412,-1.0996 1.4406,-0.6327 1.4406,-0.6327 l 0.2293,38.9843 -0.7841,2.0801 -1.7875,3.0781 c 5.7983,-1.9395 11.6807,-1.5293 17.5405,-0.2693 0.7841,0.1718 1.2974,0.2713 1.4219,0.2713 l 0.4209,-0.5233 -0.2951,-0.9649 c 0.2931,-5.1406 7.5178,-16.8732 7.5178,-16.8732 0,0 15.1531,0.4493 17.581,0.1213 l 4.2367,15.4179 c -2.0098,1.4825 -2.3996,2.5526 -2.0146,2.8222 3.3823,-1.6778 10.046796,-2.4004 13.757696,-1.7031 0.3591,0.0644 7.4673,1.8907 8.0841,1.6348 -0.5743,-0.6407 -1.6866,-1.4845 -1.8097,-2.3437 -0.1289,-0.8283 -0.0898,-1.5548 -0.0898,-1.5548 -0.8683,-12.6836 5.1398,-58.9042 5.1398,-59.4669 0.6899,-5.1443 2.0877,-0.5369 2.0877,-0.5369 0,0 12.1711,58.6661 12.9688,62.6661 l 0.0277,0.1738 0.3011,0.9334 2.5857,0.002 0.313,-1.1075 c 2.5401,-8.9646 17.3146,-60.5038 17.3146,-60.6835 1.2237,-3.8495 2.4471,-0.7186 2.4471,-0.7186 1.9463,2.2107 3.3557,59.3572 3.2658,59.4725 -3.2454,1.8848 -2.6544,3.2324 -2.6064,3.2324 7.1719,-3.6289 20.8329,-0.0663 21.0358,-0.2245 z" />
  <path
     inkscape:connector-curvature="0"
     id="path6"
     style="fill:#002e6a;fill-rule:evenodd"
     d="m 257.2863,50.956701 h -10.9624 v 1.5361 c 2.982,0.1749 3.9911,1.0508 4.2528,2.585 0.2208,1.3164 0.4399,2.9834 0.4399,6.0947 v 4.6905 c 0,7.3193 -2.2788,11.2646 -7.4979,11.2646 -4.737,0 -7.1053,-3.8115 -7.1053,-10.3875 v -9.5576 c 0,-4.1202 0.4393,-4.383 3.6394,-4.6897 v -1.5361 h -13.1976 v 1.5361 c 3.2454,0.3067 3.6831,0.5695 3.6831,4.6897 v 10.3456 c 0,5.129 1.1849,8.3721 3.6411,10.3456 2.105,1.631 4.8657,2.2453 7.7615,2.2453 3.1125,0 6.0925,-1.1027 8.1108,-3.2099 2.4548,-2.632 3.1598,-6.3117 3.1598,-10.9571 v -4.7795 c 0,-3.1113 0.1735,-4.7341 0.3937,-6.0947 0.2171,-1.5342 1.3147,-2.4532 3.6811,-2.585 z m 25.6606,5.7022 h -8.5595 v 1.1923 c 2.5963,0.1377 3.2973,0.7356 3.473,2.2461 0.1055,1.0148 0.2804,2.6632 0.2804,5.7853 v 6.1699 h -0.1069 l -13.4337,-15.3936 H 258.11 v 1.1923 c 1.5092,0.1377 2.2816,0.4201 2.9472,1.2628 0.6664,0.8408 0.7013,1.4746 0.7013,3.7871 v 7.293 c 0,3.0877 -0.2095,4.6669 -0.3518,5.8243 -0.1389,1.5086 -0.947,2.0682 -2.912,2.2059 v 1.2306 h 8.5958 v -1.2306 c -2.5963,-0.1034 -3.1916,-0.7693 -3.3693,-2.3125 -0.1035,-1.0508 -0.2778,-2.63 -0.2778,-5.7177 v -7.8546 h 0.104 l 14.5934,17.4688 h 1.6835 v -13.9257 c 0,-3.1221 0.2109,-4.7705 0.3174,-5.8575 0.1738,-1.5781 0.9105,-2.0702 2.8052,-2.1739 z m 12.4183,22.796 v -1.2306 c -2.6305,-0.244 -2.9109,-0.4912 -2.9109,-3.4324 v -13.4337 c 0,-3.0155 0.2804,-3.2275 2.9109,-3.4696 v -1.2297 h -10.559 v 1.2297 c 2.6314,0.2421 2.9477,0.4541 2.9477,3.4696 v 13.4337 c 0,2.9412 -0.3163,3.1884 -2.9477,3.4324 v 1.2306 z m 35.3948,-22.796 h -8.2454 v 1.2277 c 2.844,0.2469 2.9835,0.8408 2.4922,2.946 -0.4909,2.0685 -1.9295,7.5394 -3.2607,11.8537 h -0.1083 c -1.9287,-5.1211 -3.9288,-10.4874 -5.8906,-15.8173 h -1.6835 c -1.6132,5.4002 -3.3693,10.6962 -5.0528,15.6739 h -0.0717 c -1.192,-3.8537 -2.3845,-7.9592 -3.5425,-12.0606 -0.4912,-1.7901 -0.4552,-2.2774 2.1756,-2.5957 v -1.2277 h -10.3495 v 1.2277 c 2.0712,0.2812 2.6659,0.7713 3.5098,3.5059 1.9619,6.2419 3.6817,12.1337 5.6123,18.4541 h 1.8253 c 1.6815,-5.0567 3.4715,-10.2824 5.2596,-15.5792 h 0.0703 c 1.9659,5.3311 3.8243,10.3464 5.7538,15.5792 h 1.8224 c 2.9483,-9.8263 5.0168,-15.9259 5.7889,-18.21 0.9836,-2.9092 1.5449,-3.4005 3.8948,-3.75 z m 19.1197,16.7275 c -0.6327,1.5432 -1.2645,2.666 -1.9658,3.4365 -0.8076,0.8782 -2.0342,1.1231 -3.8583,1.1231 -1.3359,0 -2.5273,-0.0692 -3.1575,-0.3504 -0.7015,-0.3498 -0.8427,-1.1925 -0.8427,-2.8772 v -6.1015 h 2.3516 c 2.9815,0 3.4356,0.1406 3.8925,2.6679 h 1.2637 v -7.0517 h -1.2637 c -0.4569,2.4562 -0.947,2.6308 -3.8925,2.6308 h -2.3516 v -7.4355 c 0,-1.1571 0.1412,-1.2235 1.4377,-1.2235 h 1.6835 c 1.9647,0 2.912,0.2441 3.5079,0.8731 0.6347,0.6316 1.0888,1.7898 1.4023,3.0155 l 1.2988,-0.1757 c -0.1386,-2.1739 -0.3163,-4.629 -0.3486,-5.2589 h -16.5232 v 1.2277 c 2.4922,0.2089 2.8423,0.3847 2.8423,3.4364 v 13.4669 c 0,2.9803 -0.3501,3.1924 -3.3327,3.4344 v 1.2306 h 17.8903 c 0.2787,-1.0528 0.9828,-4.2461 1.2274,-5.8233 z m 10.4528,-5.1553 v -8.5215 c 0,-0.7382 0.0686,-1.0868 0.3126,-1.2977 0.2118,-0.2101 0.703,-0.3507 1.5781,-0.3507 1.9649,0 4.1417,1.332 4.1417,5.0871 0,1.7861 -0.4913,3.1904 -1.6847,4.1697 -0.7716,0.669 -1.9638,0.9131 -3.4404,0.9131 z m 14.3107,10.4153 v 0 c -0.7708,-0.2815 -1.3692,-0.7004 -2.1408,-1.5069 -0.667,-0.7384 -1.4374,-1.8595 -2.6668,-3.8234 -1.0488,-1.6112 -2.3488,-3.9276 -2.874,-4.9804 2.3456,-0.9454 4.3846,-2.6289 4.3846,-5.7158 0,-2.1739 -0.9493,-3.7179 -2.3516,-4.663 -1.4375,-0.9473 -3.1924,-1.298 -6.2782,-1.298 h -9.8575 v 1.2277 c 2.5597,0.2469 2.878,0.5967 2.878,3.4021 v 13.466 c 0,2.9101 -0.3878,3.2256 -3.0186,3.4725 v 1.2277 h 10.5928 v -1.2277 c -2.666,-0.2469 -2.9786,-0.5624 -2.9786,-3.4725 v -5.1193 h 0.6621 c 1.1271,0 1.7561,0.4541 2.3165,1.5069 1.0193,1.8595 1.965,3.7519 2.8789,5.1916 1.4394,2.2068 2.7694,3.1961 7.1895,3.4061 0.4541,0 0.8419,0.0372 1.0528,0.0372 z m 15.4686,-16.5529 c -0.2812,-2.1739 -0.5252,-3.7508 -0.6641,-5.0499 -0.6327,-0.2098 -2.6337,-0.9099 -4.8779,-0.9099 -4.9793,0 -8.0331,3.0126 -8.0331,6.874 0,3.3661 2.5262,5.2597 6.1024,7.0849 2.6348,1.4023 4.1749,2.6983 4.1749,4.7684 0,2.2434 -1.368,3.7168 -3.5067,3.7168 -3.3673,0 -5.4377,-3.9608 -6.1387,-6.207 l -1.2266,0.4201 c 0.2441,2.1024 0.701,5.0488 1.0508,5.9247 0.4569,0.2129 1.1211,0.4912 2.1036,0.7804 1.0565,0.3123 2.281,0.4912 3.5427,0.4912 5.1251,0 8.5255,-3.1289 8.5255,-7.126 0,-3.4747 -2.5234,-5.4366 -6.2081,-7.2258 -3.0887,-1.5769 -4.3495,-2.6649 -4.3495,-4.5907 0,-2.0361 1.4366,-3.4747 3.4024,-3.4747 2.8417,0 4.1737,2.5957 4.8759,4.8058 z m 23.9962,-5.4346 h -8.1386 v 1.2277 c 2.5957,0.3183 2.6308,0.8056 2.0701,2.2107 -0.8418,2.1388 -2.6316,5.4346 -3.6484,7.4308 -1.3672,-2.5937 -2.8066,-5.1886 -4.034,-7.6436 -0.5987,-1.2617 -0.6319,-1.6796 1.6463,-1.9979 v -1.2277 h -9.9949 v 1.2277 c 1.9275,0.2812 2.5234,0.6316 3.8231,2.946 2.1036,3.7171 3.3993,6.0665 4.3486,7.9603 0.3144,0.6999 0.4581,1.0525 0.4581,1.9295 v 3.8914 c 0,3.1916 -0.3175,3.4016 -3.2998,3.6457 v 1.1954 h 11.4023 v -1.1954 c -3.1572,-0.2441 -3.4024,-0.4541 -3.4024,-3.6457 v -4.4889 c 0,-1.0851 0.1015,-1.4709 0.631,-2.4191 1.6824,-3.2958 2.6308,-4.8047 3.9277,-6.8732 1.3008,-2.0712 2.0018,-2.6991 4.2109,-2.946 z m 22.3817,5.9258 c -0.1757,-2.245 -0.3534,-5.3311 -0.3877,-6.8017 h -0.8759 c -0.6004,0.6659 -1.0868,0.8759 -1.9979,0.8759 h -14.1038 c -1.0173,0 -1.4734,-0.1063 -1.9998,-0.8759 h -0.879 c -0.0692,1.787 -0.2781,4.3458 -0.4218,6.9083 h 1.3008 c 0.4561,-1.7549 0.8767,-2.9474 1.4734,-3.545 0.4913,-0.5938 1.1211,-0.9445 4.0354,-0.9445 h 1.1914 v 16.5881 c 0,2.9803 -0.3534,3.1904 -3.2958,3.4344 v 1.2306 h 11.4344 v -1.2306 c -3.0858,-0.244 -3.4404,-0.4541 -3.4404,-3.4344 v -16.5881 h 1.582 c 2.0693,0 2.9483,0.1749 3.5753,0.8068 0.6319,0.629 1.126,1.8221 1.5458,3.6484 z m 19.6436,10.8017 c -0.6299,1.5432 -1.2637,2.666 -1.9647,3.4365 -0.8056,0.8782 -2.0342,1.1231 -3.8594,1.1231 -1.3331,0 -2.5254,-0.0692 -3.1544,-0.3504 -0.7069,-0.3498 -0.8447,-1.1925 -0.8447,-2.8772 v -6.1015 h 2.3505 c 2.9795,0 3.4387,0.1406 3.8956,2.6679 h 1.2637 v -7.0517 h -1.2637 c -0.4569,2.4562 -0.9473,2.6308 -3.8956,2.6308 h -2.3505 v -7.4355 c 0,-1.1571 0.1378,-1.2235 1.4394,-1.2235 h 1.6835 c 1.965,0 2.9104,0.2441 3.5059,0.8731 0.6338,0.6316 1.0879,1.7898 1.4026,3.0155 l 1.3005,-0.1757 c -0.1386,-2.1739 -0.3183,-4.629 -0.3503,-5.2589 H 438.768 v 1.2277 c 2.4913,0.2089 2.842,0.3847 2.842,3.4364 v 13.4669 c 0,2.9803 -0.3507,3.1924 -3.335,3.4344 v 1.2306 h 17.8926 c 0.2812,-1.0528 0.9833,-4.2461 1.2274,-5.8233 z m 23.0479,-10.8017 c -0.1749,-2.245 -0.3506,-5.3311 -0.3858,-6.8017 h -0.8779 c -0.5947,0.6659 -1.0871,0.8759 -1.997,0.8759 h -14.1018 c -1.0193,0 -1.4754,-0.1063 -2.0018,-0.8759 h -0.877 c -0.0692,1.787 -0.2812,4.3458 -0.4218,6.9083 h 1.2988 c 0.4561,-1.7549 0.8779,-2.9474 1.4737,-3.545 0.4913,-0.5938 1.1228,-0.9445 4.0332,-0.9445 h 1.1933 v 16.5881 c 0,2.9803 -0.3534,3.1904 -3.2958,3.4344 v 1.2306 h 11.4344 v -1.2306 c -3.0858,-0.244 -3.4384,-0.4541 -3.4384,-3.4344 v -16.5881 h 1.58 c 2.0684,0 2.9475,0.1749 3.5773,0.8068 0.6299,0.629 1.1228,1.8221 1.5429,3.6484 z M 237.3757,124.8032 v -1.2245 c -2.6266,-0.2461 -2.9058,-0.4884 -2.9058,-3.4317 v -13.4041 c 0,-3.0068 0.2792,-3.2168 2.9058,-3.4637 v -1.2237 h -10.5386 v 1.2237 c 2.626,0.2469 2.9409,0.4569 2.9409,3.4637 v 13.4041 c 0,2.9433 -0.3149,3.1856 -2.9409,3.4317 v 1.2245 z m 31.5063,0 v -1.2245 c -2.7301,-0.2795 -2.905,-0.5256 -2.9753,-3.7443 l -0.3135,-13.0915 c -0.0717,-2.9033 0.068,-3.1825 2.8692,-3.4637 v -1.2237 h -7.0713 l -6.8612,15.3297 -6.7215,-15.3297 h -7.2454 v 1.2237 c 3.0084,0.2812 3.2539,0.7705 2.9727,4.7234 l -0.5596,6.9335 c -0.2786,3.6717 -0.5247,5.5273 -0.7341,6.6132 -0.2464,1.2598 -0.8768,1.8556 -2.8698,2.0294 v 1.2245 h 8.4362 v -1.2245 c -2.3443,-0.2129 -3.011,-0.5256 -3.151,-2.1016 -0.1412,-1.084 -0.1744,-2.7287 0,-5.6348 l 0.4189,-9.1315 h 0.142 l 7.1417,17.8484 h 0.9805 l 7.7363,-18.199 h 0.1743 l 0.0697,13.4742 c 0,3.2187 -0.1757,3.4648 -2.8017,3.7443 v 1.2245 z m 5.3915,0.4258 c 1.54,0 2.626,-1.0899 2.626,-2.666 0,-1.5392 -1.086,-2.6583 -2.5903,-2.6583 -1.4706,0 -2.5912,1.1191 -2.5912,2.6583 0,1.5761 1.1206,2.666 2.5555,2.666 z m 51.8995,-19.3209 c 0,-1.0168 0.0694,-1.6144 0.3495,-1.9279 0.2452,-0.2441 0.9454,-0.4881 2.2051,-0.4881 2.4171,0 4.2707,0.6982 5.7067,2.1688 1.6106,1.5752 2.6274,4.2335 2.6274,7.5586 0,6.2654 -3.2218,10.0797 -7.912,10.0797 -2.4523,0 -2.9767,-0.8731 -2.9767,-3.3945 z m -7.4923,-3.8506 v 0 1.2245 c 2.4503,0.2461 2.8018,0.4541 2.8018,3.4628 v 13.3688 c 0,3.0098 -0.3515,3.2207 -3.1141,3.4651 v 1.2265 h 8.9951 c 4.3407,0 8.0156,-0.9473 10.6064,-2.9083 2.6621,-2.0254 4.3767,-5.1092 4.3767,-9.3756 0,-3.3242 -1.3654,-5.8105 -3.115,-7.456 -2.2422,-2.1367 -5.6378,-3.0078 -10.0479,-3.0078 z m 36.936,13.4351 h -5.4635 c 0.9117,-2.4832 1.7847,-5.0378 2.7684,-7.5924 h 0.1023 z m 10.3955,9.3106 v 0 -1.2245 c -2.2393,-0.2795 -2.66,-0.7365 -3.8494,-3.8146 -2.2777,-6.0191 -4.4476,-12.1091 -6.6886,-18.235 l -1.7822,0.4569 -7.1784,17.987 c -1.1554,2.9415 -1.6124,3.3262 -3.9201,3.6057 v 1.2245 h 7.8409 v -1.2245 c -2.5545,-0.3147 -2.6603,-0.8068 -2.1347,-2.4863 0.4218,-1.3986 0.8767,-2.6603 1.2605,-3.7423 h 6.7215 c 0.5256,1.3983 1.0489,2.9044 1.3975,3.9532 0.5627,1.5389 0.3878,1.9607 -1.6786,2.2754 v 1.2245 z m 30.7695,0 v -1.2245 c -2.7274,-0.2795 -2.9043,-0.5256 -2.9746,-3.7443 l -0.3144,-13.0915 c -0.0683,-2.9033 0.0723,-3.1825 2.8692,-3.4637 v -1.2237 h -7.0713 l -6.8604,15.3297 -6.7198,-15.3297 h -7.249 v 1.2237 c 3.0098,0.2812 3.257,0.7705 2.9758,4.7234 l -0.5559,6.9335 c -0.2852,3.6717 -0.5292,5.5273 -0.7381,6.6132 -0.2452,1.2598 -0.8771,1.8556 -2.8701,2.0294 v 1.2245 h 8.4373 v -1.2245 c -2.3485,-0.2129 -3.0127,-0.5256 -3.1552,-2.1016 -0.1386,-1.084 -0.1749,-2.7287 0,-5.6348 l 0.4201,-9.1315 h 0.1425 l 7.1405,17.8484 h 0.9834 l 7.7354,-18.199 h 0.1746 l 0.0695,13.4742 c 0,3.2187 -0.1746,3.4648 -2.8018,3.7443 v 1.2245 z m 14.6348,-9.3106 h -5.4599 c 0.9091,-2.4832 1.7862,-5.0378 2.7635,-7.5924 h 0.1066 z m 10.3994,9.3106 v 0 -1.2245 c -2.2422,-0.2795 -2.6611,-0.7365 -3.8525,-3.8146 -2.2774,-6.0191 -4.4453,-12.1091 -6.6875,-18.235 l -1.785,0.4569 -7.1779,17.987 c -1.1543,2.9415 -1.6092,3.3262 -3.9209,3.6057 v 1.2245 h 7.8438 v -1.2245 c -2.5558,-0.3147 -2.6612,-0.8068 -2.1328,-2.4863 0.4169,-1.3986 0.8722,-2.6603 1.2588,-3.7423 h 6.7207 c 0.5264,1.3983 1.0517,2.9044 1.4003,3.9532 0.5607,1.5389 0.385,1.9607 -1.6787,2.2754 v 1.2245 z m 58.9521,0 v -1.2245 c -2.6248,-0.2461 -2.9032,-0.4884 -2.9032,-3.4317 v -13.4041 c 0,-3.0068 0.2784,-3.2168 2.9032,-3.4637 v -1.2237 H 470.23 v 1.2237 c 2.6268,0.2469 2.9403,0.4569 2.9403,3.4637 v 13.4041 c 0,2.9433 -0.3135,3.1856 -2.9403,3.4317 v 1.2245 z m 22.9306,-6.5077 c -1.7849,3.5331 -3.9549,5.3906 -6.8641,5.3906 -4.7608,0 -8.2247,-4.2364 -8.2247,-10.6747 0,-5.1806 2.7998,-9.9394 7.8769,-9.9394 2.6955,0 5.3918,1.2246 6.5472,5.3526 l 1.2966,-0.2432 c -0.2469,-2.1719 -0.493,-3.7811 -0.8076,-5.7041 -0.9454,-0.2129 -3.5331,-0.9454 -6.37,-0.9454 -8.3682,0 -13.8643,4.9689 -13.8643,12.1788 0,5.5633 3.8514,11.6237 13.163,11.6237 2.3819,0 5.6007,-0.7032 6.5117,-0.9141 0.5939,-1.2266 1.5061,-3.8846 1.9622,-5.6016 z m 26.2571,6.5077 v -1.2245 c -1.4035,-0.2129 -2.3468,-0.7696 -3.7834,-2.592 -2.5183,-3.1836 -5.1112,-6.7187 -7.3534,-10.0778 1.5781,-1.6092 3.0498,-3.2901 5.1114,-5.1797 1.9287,-1.8184 3.3651,-2.2402 5.5333,-2.45 v -1.2237 h -9.0998 v 1.2237 l 0.631,0.072 c 1.6435,0.2092 1.7127,0.7325 0.8739,1.8156 -1.1551,1.5761 -2.5557,3.2938 -4.9014,5.6718 -1.0516,1.0849 -1.9258,1.6455 -2.6611,1.8556 v -5.9513 c 0,-3.0068 0.2783,-3.2168 2.7666,-3.4637 v -1.2237 h -10.2929 v 1.2237 c 2.624,0.2469 2.9415,0.4569 2.9415,3.4637 v 13.3707 c 0,3.0098 -0.3489,3.219 -2.8723,3.4651 v 1.2245 h 10.4657 v -1.2245 c -2.6931,-0.2461 -3.0086,-0.4553 -3.0086,-3.4651 v -6.2994 c 0.5235,-0.0692 0.9793,0.1406 1.7149,1.1902 2.4843,3.6366 5.3935,7.7363 6.8984,9.7988 z m 11.9755,0 v -1.2245 c -2.6252,-0.2461 -2.9064,-0.4884 -2.9064,-3.4317 v -13.4041 c 0,-3.0068 0.2812,-3.2168 2.9064,-3.4637 v -1.2237 h -10.5421 v 1.2237 c 2.628,0.2469 2.9435,0.4569 2.9435,3.4637 v 13.4041 c 0,2.9433 -0.3155,3.1856 -2.9435,3.4317 v 1.2245 z m 20.126,-6.0528 c -0.6299,1.5372 -1.2597,2.6603 -1.961,3.4277 -0.8045,0.875 -2.0302,1.1211 -3.8495,1.1211 -1.3311,0 -2.5225,-0.0703 -3.1504,-0.3495 -0.7002,-0.3496 -0.8427,-1.1914 -0.8427,-2.871 v -6.0896 h 2.3473 c 2.9767,0 3.4328,0.1434 3.886,2.6597 h 1.2606 v -7.0327 h -1.2606 c -0.4532,2.4502 -0.9433,2.6228 -3.886,2.6228 h -2.3473 v -7.4168 c 0,-1.1574 0.1425,-1.2249 1.4374,-1.2249 h 1.6807 c 1.959,0 2.906,0.2444 3.5019,0.8723 0.6318,0.631 1.084,1.7861 1.3975,3.0106 l 1.2968,-0.1737 c -0.1406,-2.1708 -0.3163,-4.6202 -0.3515,-5.2489 h -16.4883 v 1.2217 c 2.4872,0.2098 2.837,0.3855 2.837,3.4316 v 13.4402 c 0,2.9724 -0.3498,3.1833 -3.3282,3.4294 v 1.2228 h 17.8563 c 0.2815,-1.0488 0.9788,-4.2344 1.2245,-5.8087 z m 35.5323,-16.6929 h -8.2256 v 1.2245 c 2.8369,0.2461 2.9755,0.8419 2.4871,2.9396 -0.4912,2.0625 -1.9276,7.5234 -3.2567,11.8278 h -0.1046 c -1.9276,-5.1092 -3.9226,-10.4618 -5.8836,-15.7819 h -1.6807 c -1.6083,5.3904 -3.3604,10.6727 -5.0403,15.645 h -0.0691 c -1.1926,-3.8512 -2.38,-7.9458 -3.5351,-12.0427 -0.4912,-1.783 -0.4552,-2.2743 2.1679,-2.5878 v -1.2245 h -10.3263 v 1.2245 c 2.0645,0.2784 2.6623,0.7694 3.5011,3.5011 1.961,6.2263 3.6768,12.1079 5.5995,18.4107 h 1.8204 c 1.6816,-5.0428 3.4668,-10.2577 5.2521,-15.5437 h 0.074 c 1.9553,5.3212 3.8126,10.3249 5.7384,15.5437 h 1.8193 c 2.9435,-9.8047 5.0068,-15.8941 5.7781,-18.1675 0.9797,-2.9024 1.5404,-3.3936 3.8841,-3.7443 z m 12.1816,22.7457 v -1.2245 c -2.6241,-0.2461 -2.9033,-0.4884 -2.9033,-3.4317 v -13.4041 c 0,-3.0068 0.2792,-3.2168 2.9033,-3.4637 v -1.2237 H 599.237 v 1.2237 c 2.624,0.2469 2.9375,0.4569 2.9375,3.4637 v 13.4041 c 0,2.9433 -0.3135,3.1856 -2.9375,3.4317 v 1.2245 z m 22.9306,-6.5077 c -1.785,3.5331 -3.9532,5.3906 -6.8613,5.3906 -4.7628,0 -8.2276,-4.2364 -8.2276,-10.6747 0,-5.1806 2.8038,-9.9394 7.8801,-9.9394 2.6932,0 5.3895,1.2246 6.5449,5.3526 l 1.2957,-0.2432 c -0.2449,-2.1719 -0.4912,-3.7811 -0.8048,-5.7041 -0.9481,-0.2129 -3.535,-0.9454 -6.372,-0.9454 -8.3681,0 -13.8651,4.9689 -13.8651,12.1788 0,5.5633 3.8546,11.6237 13.1658,11.6237 2.3811,0 5.5999,-0.7032 6.5089,-0.9141 0.5948,-1.2266 1.505,-3.8846 1.963,-5.6016 z m 21.8837,-0.2345 c -0.7705,2.164 -1.3652,3.2128 -2.2051,4.0196 -1.0145,0.9374 -3.4636,1.1503 -6.1991,1.1503 -2.2022,0 -3.1835,-0.0723 -4.3418,-0.2129 4.3778,-6.9452 8.7177,-13.5845 13.0966,-20.4353 l -0.2812,-0.5272 H 640.44 c -1.118,0 -1.5038,-0.0675 -2.0274,-0.8742 h -0.913 c -0.0695,1.8195 -0.2775,4.2814 -0.3827,7.0001 l 1.1551,0.0341 c 0.3858,-1.658 0.9434,-2.7185 1.3652,-3.3523 0.5556,-0.8478 1.2245,-1.2336 4.7951,-1.2336 h 4.4101 c -4.3398,6.7833 -8.8554,13.8024 -13.3361,20.5778 l 0.3857,0.5978 h 18.5891 c 0.3495,-1.2265 0.9813,-4.754 1.2569,-6.463 z m 15.33,-2.5684 h -5.4589 c 0.9122,-2.4832 1.7864,-5.0378 2.7638,-7.5924 h 0.1054 z m 10.3987,9.3106 v -1.2245 c -2.2403,-0.2795 -2.6606,-0.7368 -3.8506,-3.8146 -2.2745,-6.0191 -4.4464,-12.1091 -6.6887,-18.235 l -1.7841,0.4569 -7.1776,17.987 c -1.1543,2.9415 -1.6095,3.3262 -3.9209,3.6057 v 1.2245 h 7.8458 v -1.2245 c -2.5557,-0.3147 -2.6612,-0.8068 -2.1348,-2.4863 0.4158,-1.3986 0.8711,-2.6603 1.2586,-3.7423 h 6.7206 c 0.5264,1.3983 1.052,2.9044 1.4006,3.9532 0.5596,1.5389 0.3856,1.9607 -1.6818,2.2754 v 1.2245 z M 303.4182,113.1659 h -6.8267 c 1.1372,-3.1045 2.2306,-6.298 3.4565,-9.4924 h 0.1319 z m 12.996,11.6373 v 0 -1.5332 c -2.8007,-0.3495 -3.3242,-0.9179 -4.8136,-4.7656 -2.8417,-7.524 -5.5567,-15.1373 -8.3568,-22.794799 l -2.2331,0.5694 -8.9697,22.486999 c -1.4451,3.674 -2.0146,4.1545 -4.9031,4.504 v 1.5332 h 9.8045 V 123.27 c -3.1952,-0.3926 -3.3262,-1.0058 -2.6699,-3.1034 0.5255,-1.7501 1.0947,-3.3242 1.5729,-4.6837 h 8.4036 c 0.6565,1.7501 1.3136,3.6329 1.7512,4.9453 0.7002,1.9239 0.4805,2.4492 -2.1002,2.8418 v 1.5332 z m 151.2952,0 V 123.27 c -3.4129,-0.3495 -3.6306,-0.6543 -3.7188,-4.6778 l -0.3914,-16.363 c -0.0879,-3.630899 0.0878,-3.981499 3.5869,-4.328999 v -1.5333 h -8.841 l -8.577,19.162799 -8.4022,-19.162799 h -9.0607 v 1.5333 c 3.7667,0.3475 4.0712,0.9598 3.7228,5.905099 l -0.7005,8.6633 c -0.3515,4.5904 -0.6559,6.9088 -0.9187,8.2661 -0.3067,1.5763 -1.0947,2.3184 -3.5889,2.5373 v 1.5312 h 10.546 v -1.5312 c -2.9327,-0.2637 -3.765,-0.6563 -3.9404,-2.6252 -0.1729,-1.3572 -0.216,-3.4138 0,-7.0424 l 0.5281,-11.4182 h 0.176 l 8.9274,22.3103 h 1.2229 l 9.6709,-22.7477 h 0.2197 l 0.0868,16.8434 c 0,4.0235 -0.2197,4.3283 -3.4988,4.6798 v 1.5312 z m -207.1366,22.5723 h -8.25 v 1.2266 c 2.8437,0.246 2.984,0.8416 2.4922,2.9511 -0.4912,2.0704 -1.9301,7.547 -3.2646,11.8593 h -0.1066 c -1.9287,-5.123 -3.9314,-10.4921 -5.8972,-15.8261 h -1.6838 c -1.6154,5.4023 -3.3701,10.7031 -5.057,15.6855 h -0.0703 c -1.192,-3.8593 -2.3859,-7.9667 -3.5444,-12.0722 -0.4913,-1.7892 -0.457,-2.2813 2.1773,-2.5976 v -1.2266 h -10.3561 v 1.2266 c 2.071,0.2812 2.6665,0.7735 3.5093,3.5098 1.9649,6.2459 3.6864,12.1445 5.6162,18.4646 h 1.8253 c 1.686,-5.0564 3.4775,-10.2849 5.267,-15.5857 h 0.0715 c 1.9652,5.3359 3.8253,10.3515 5.7557,15.5857 h 1.8252 c 2.9501,-9.8319 5.021,-15.9375 5.7929,-18.2185 0.9819,-2.9143 1.5455,-3.4044 3.8974,-3.7559 z m 47.3819,0.9842 c 4.1088,0 6.9174,4.176 6.9174,11.1583 0,6.459 -2.704,9.7228 -6.0389,9.7228 -4.4924,0 -7.1252,-5.0527 -7.1252,-11.0919 0,-6.0684 2.7374,-9.7892 6.2467,-9.7892 z m 0.703,-1.4746 v 0 c -8.039,0 -12.3568,5.9318 -12.3568,11.9707 0,6.7014 4.8799,11.8633 11.9013,11.8633 6.6348,0 12.0753,-4.6035 12.0753,-12.1816 0,-6.914 -5.2305,-11.6524 -11.6198,-11.6524 z m 33.2104,16.543 c -0.7735,2.1682 -1.3699,3.2188 -2.2127,4.0275 -1.0165,0.9414 -3.475,1.1523 -6.213,1.1523 -2.2127,0 -3.1952,-0.0703 -4.3514,-0.2109 4.3846,-6.967 8.7412,-13.6211 13.1286,-20.4942 l -0.2812,-0.5273 h -14.2537 c -1.1231,0 -1.5077,-0.0683 -2.0353,-0.877 h -0.9139 c -0.0703,1.8263 -0.2812,4.293 -0.3849,7.0177 l 1.1594,0.0349 c 0.3858,-1.66 0.9462,-2.7244 1.3671,-3.3611 0.5616,-0.8478 1.2286,-1.2364 4.811,-1.2364 h 4.4217 c -4.3528,6.8048 -8.8812,13.8398 -13.3744,20.6367 l 0.3869,0.5976 h 18.6381 c 0.3538,-1.2285 0.9845,-4.7676 1.2637,-6.4823 z m 26.9966,-16.0526 h -8.5654 v 1.1914 c 2.5968,0.1426 3.299,0.7362 3.4736,2.2479 0.1065,1.0196 0.2814,2.666 0.2814,5.7892 v 6.1758 h -0.1046 l -13.443,-15.4043 h -6.4961 v 1.1914 c 1.5097,0.1426 2.2793,0.4238 2.9483,1.2637 0.667,0.8436 0.7021,1.4746 0.7021,3.793 v 7.2967 c 0,3.0881 -0.208,4.6701 -0.3515,5.8283 -0.1377,1.5078 -0.9453,2.0702 -2.9103,2.2108 v 1.2265 h 8.5975 v -1.2265 c -2.5974,-0.1055 -3.1941,-0.7733 -3.371,-2.3182 -0.1023,-1.0508 -0.2812,-2.6328 -0.2812,-5.7209 v -7.8593 h 0.1055 l 14.6043,17.4843 h 1.6855 V 156.604 c 0,-3.1232 0.2101,-4.7696 0.3155,-5.8575 0.1758,-1.582 0.9139,-2.0722 2.8094,-2.1796 z m 12.6358,13.4745 h -5.4746 c 0.9122,-2.4882 1.7909,-5.0508 2.7734,-7.6113 h 0.1035 z m 10.4298,9.3379 v 0 -1.2285 c -2.2482,-0.2812 -2.672,-0.7362 -3.8614,-3.8282 -2.2842,-6.033 -4.4589,-12.1405 -6.7071,-18.2832 l -1.7909,0.4572 -7.1955,18.0391 c -1.1602,2.9472 -1.6151,3.3339 -3.9325,3.6151 v 1.2285 h 7.8625 v -1.2285 c -2.5645,-0.3164 -2.6651,-0.8085 -2.1407,-2.492 0.4206,-1.4043 0.8787,-2.6662 1.2645,-3.7559 h 6.7394 c 0.5264,1.4043 1.0545,2.912 1.4023,3.9668 0.5635,1.5449 0.3878,1.9647 -1.6835,2.2811 v 1.2285 z m 26.0798,-22.8124 h -8.5651 v 1.1914 c 2.5985,0.1426 3.3018,0.7362 3.4775,2.2479 0.1035,1.0196 0.2764,2.666 0.2764,5.7892 v 6.1758 h -0.1018 L 399.651,147.3755 h -6.4942 v 1.1914 c 1.5126,0.1426 2.283,0.4238 2.9492,1.2637 0.667,0.8436 0.7013,1.4746 0.7013,3.793 v 7.2967 c 0,3.0881 -0.2101,4.6701 -0.3527,5.8283 -0.1386,1.5078 -0.9453,2.0702 -2.9112,2.2108 v 1.2265 h 8.5987 v -1.2265 c -2.5966,-0.1055 -3.1924,-0.7733 -3.369,-2.3182 -0.1046,-1.0508 -0.2795,-2.6328 -0.2795,-5.7209 v -7.8593 h 0.1066 l 14.5987,17.4843 h 1.6883 V 156.604 c 0,-3.1232 0.21,-4.7696 0.3163,-5.8575 0.1749,-1.582 0.9114,-2.0722 2.8066,-2.1796 z m 12.4319,22.8124 v -1.2285 c -2.6348,-0.2461 -2.916,-0.4921 -2.916,-3.4413 v -13.4416 c 0,-3.0155 0.2812,-3.2264 2.916,-3.4744 v -1.2266 h -10.5675 v 1.2266 c 2.628,0.248 2.9474,0.4589 2.9474,3.4744 v 13.4416 c 0,2.9492 -0.3194,3.1952 -2.9474,3.4413 v 1.2285 z m 26.782,-22.8124 h -8.7763 v 1.2266 c 2.3879,0.1406 3.1955,0.8416 3.4064,2.0721 0.1738,1.0528 0.3515,2.3868 0.3515,4.877 v 3.7579 c 0,5.8592 -1.8272,9.0176 -6.0041,9.0176 -3.7939,0 -5.6874,-3.0527 -5.6874,-8.3166 v -7.6521 c 0,-3.301 0.3526,-3.5099 2.9132,-3.7559 v -1.2266 h -10.5685 v 1.2266 c 2.5997,0.246 2.9532,0.4549 2.9532,3.7559 v 8.2811 c 0,4.1094 0.9453,6.7051 2.9123,8.2814 1.6835,1.3085 3.8954,1.7986 6.2138,1.7986 2.4931,0 4.8779,-0.8827 6.4922,-2.5682 1.9667,-2.1056 2.5282,-5.0527 2.5282,-8.7755 v -3.8242 c 0,-2.4902 0.1426,-3.7891 0.3175,-4.877 0.1766,-1.2305 1.0517,-1.9647 2.948,-2.0721 z m -177.5783,-2.1974 c 0,-0.6562 0.0867,-1.0936 0.3946,-1.3592 0.2622,-0.2169 0.7888,-0.4377 1.622,-0.4377 2.6793,0 5.4413,1.6231 5.4413,6.5821 0,5.9218 -3.5098,7.0605 -5.0899,7.0605 -0.9198,0 -1.8436,-0.2205 -2.368,-0.4354 z m -9.2602,-3.5076 v 0 1.535 c 3.071,0.3067 3.4662,0.6134 3.4662,4.3438 v 16.8026 c 0,3.7307 -0.3952,4.0371 -3.6862,4.3438 v 1.4902 h 13.604 v -1.4902 c -3.7292,-0.3067 -4.1238,-0.6131 -4.1238,-4.3438 v -6.0565 l 2.9834,0.7501 c 0.4819,0 1.1404,0 1.7983,-0.0879 4.6517,-0.5743 8.9966,-3.2482 8.9966,-9.127 0,-2.8536 -1.1857,-5.0451 -3.247,-6.4494 -1.7541,-1.2265 -4.2129,-1.7107 -7.6808,-1.7107 z" />
</svg>
